<svg xmlns="http://www.w3.org/2000/svg" version="1.1" xmlns:xlink="http://www.w3.org/1999/xlink" xmlns:svgjs="http://svgjs.dev/svgjs" viewBox="0 0 800 800"><defs><linearGradient x1="50%" y1="0%" x2="50%" y2="100%" id="ccchaos-grad"><stop stop-color="hsl(206, 75%, 49%)" stop-opacity="1" offset="0%"></stop><stop stop-color="hsl(331, 90%, 56%)" stop-opacity="1" offset="100%"></stop></linearGradient></defs><g stroke-width="1" stroke="hsl(205, 69%, 50%)" fill="none" stroke-linecap="round"><path d="M44.47 38.19Q54.85 36.82 65.23 35.92 75.6 35.55 85.98 35.7 96.36 36.39 106.74 37.57 117.11 39.2 127.49 41.21 137.87 43.51 148.25 46 158.63 48.58 169 51.13 179.38 53.55 189.76 55.73 200.14 57.58 210.51 59.01 220.89 59.98 231.27 60.42 241.65 60.34 252.02 59.72 262.4 58.61 272.78 57.03 283.16 55.07 293.53 52.81 303.91 50.33 314.29 47.76 324.67 45.2 335.05 42.76 345.42 40.54 355.8 38.64 366.18 37.15 376.56 36.12 386.93 35.6 397.31 35.61 407.69 36.15 418.07 37.2 428.44 38.72 438.82 40.63 449.2 42.86 459.58 45.31 469.95 47.87 480.33 50.44 490.71 52.91 501.09 55.16 511.47 57.11 521.84 58.66 532.22 59.76 542.6 60.35 552.98 60.42 563.35 59.94 573.73 58.96 584.11 57.5 594.49 55.64 604.86 53.45 615.24 51.02 625.62 48.47 636 45.89 646.37 43.41 656.75 41.12 667.13 39.13 677.51 37.51 687.89 36.35 700.57 40.84 699.41 56.43 698.36 66.86 699.81 77.3 703.67 87.74 709.77 98.17 717.83 108.61 727.47 119.05 738.24 129.48 749.66 139.92 761.18 150.36 772.28 160.8 782.44 171.23 791.18 181.67 798.11 192.11 802.91 202.54 805.34 212.98 805.3 223.42 802.8 233.85 797.93 244.29 790.94 254.73 782.15 265.17 771.95 275.6 760.83 286.04 749.31 296.48 737.9 306.91 727.15 317.35 717.55 327.79 709.55 338.22 703.51 348.66 699.73 359.1 698.36 369.54 699.48 379.97 703.03 390.41 708.85 400.85 716.67 411.28 726.13 421.72 736.78 432.16 748.14 442.59 759.68 453.03 770.87 463.47 781.18 473.91 790.13 484.34 797.32 494.78 802.41 505.22 805.16 515.65 805.45 526.09 803.26 536.53 798.7 546.96 791.97 557.4 783.39 567.84 773.35 578.28 762.33 588.71 750.82 599.15 739.37 609.59 728.51 620.02 718.73 630.46 710.5 640.9 704.18 651.33 700.09 661.77 698.4 672.21 699.19 682.65 700.01 698.56 687.23 706.63 676.86 711.16 666.49 717.44 656.13 725.21 645.76 734.12 635.39 743.81 625.02 753.84 614.65 763.8 604.29 773.25 593.92 781.78 583.55 789.04 573.18 794.71 562.81 798.54 552.45 800.38 542.08 800.14 531.71 797.83 521.34 793.56 510.97 787.5 500.61 779.92 490.24 771.14 479.87 761.54 469.5 751.52 459.13 741.53 448.77 731.99 438.4 723.31 428.03 715.85 417.66 709.95 407.29 705.86 396.93 703.74 386.56 703.69 376.19 705.72 365.82 709.74 355.45 715.56 345.09 722.95 334.72 731.59 324.35 741.11 313.98 751.09 303.62 761.11 293.25 770.74 282.88 779.56 272.51 787.2 262.14 793.33 251.78 797.69 241.41 800.08 231.04 800.41 220.67 798.67 210.3 794.92 199.94 789.32 189.57 782.13 179.2 773.64 168.83 764.22 158.46 754.28 148.1 744.24 137.73 734.53 127.36 725.57 116.99 717.75 106.62 711.4 96.26 706.79 85.89 704.11 75.52 703.5 65.15 704.96 49.38 705.85 43.7 692.69 43.64 682.13 43.78 671.58 44.11 661.02 44.62 650.46 45.29 639.91 46.09 629.35 46.97 618.79 47.9 608.24 48.83 597.68 49.73 587.13 50.55 576.57 51.24 566.01 51.79 555.46 52.16 544.9 52.34 534.34 52.32 523.79 52.09 513.23 51.68 502.67 51.09 492.12 50.37 481.56 49.53 471 48.62 460.45 47.68 449.89 46.76 439.34 45.89 428.78 45.12 418.22 44.49 407.67 44.01 397.11 43.73 386.55 43.64 376 43.75 365.44 44.05 354.88 44.55 344.33 45.2 333.77 45.98 323.21 46.85 312.66 47.78 302.1 48.71 291.55 49.62 280.99 50.45 270.43 51.16 259.88 51.73 249.32 52.12 238.76 52.33 228.21 52.33 217.65 52.13 207.09 51.74 196.54 51.18 185.98 50.47 175.42 49.64 164.87 48.74 154.31 47.81 143.76 46.88 133.2 46 122.64 45.22 112.09 44.56 101.53 44.07 90.97 43.75 80.42 43.64 69.86 43.72 59.3 44 48.75 44.47 38.19" stroke-dasharray="0 0" transform="rotate(0, 400, 400)" opacity="0.05"></path><path d="M54.3 47.31Q64.27 46.4 74.24 45.99 84.22 46.11 94.19 46.75 104.16 47.88 114.14 49.45 124.11 51.42 134.08 53.69 144.06 56.17 154.03 58.76 164 61.37 173.98 63.88 183.95 66.19 193.92 68.21 203.9 69.87 213.87 71.08 223.84 71.81 233.82 72.02 243.79 71.7 253.76 70.88 263.74 69.57 273.71 67.84 283.68 65.75 293.66 63.39 303.63 60.86 313.6 58.25 323.58 55.66 333.55 53.22 343.52 51 353.5 49.11 363.47 47.62 373.44 46.58 383.42 46.04 393.39 46.03 403.36 46.54 413.34 47.55 423.31 49.02 433.28 50.89 443.26 53.09 453.23 55.53 463.2 58.11 473.18 60.72 483.15 63.27 493.12 65.64 503.1 67.74 513.07 69.49 523.04 70.82 533.02 71.67 542.99 72.01 552.96 71.83 562.94 71.13 572.91 69.94 582.88 68.31 592.86 66.3 602.83 64 612.8 61.5 622.78 58.9 632.75 56.3 642.72 53.81 652.7 51.53 662.67 49.55 672.64 47.95 685.92 51.52 688.13 66.36 689.32 76.48 692.76 86.6 698.3 96.71 705.7 106.83 714.63 116.95 724.71 127.06 735.5 137.18 746.52 147.3 757.31 157.41 767.39 167.53 776.31 177.65 783.71 187.76 789.24 197.88 792.68 208 793.86 218.11 792.75 228.23 789.39 238.35 783.92 248.46 776.58 258.58 767.7 268.7 757.65 278.81 746.88 288.93 735.86 299.05 725.05 309.17 714.94 319.28 705.97 329.4 698.52 339.52 692.91 349.63 689.4 359.75 688.13 369.87 689.16 379.98 692.44 390.1 697.84 400.22 705.12 410.33 713.95 420.45 723.96 430.57 734.72 440.68 745.74 450.8 756.56 460.92 766.7 471.03 775.73 481.15 783.24 491.27 788.92 501.38 792.51 511.5 793.86 521.62 792.91 531.73 789.7 541.85 784.37 551.97 777.16 562.08 768.37 572.2 758.4 582.32 747.66 592.43 736.64 602.55 725.8 612.67 715.63 622.78 706.56 632.9 698.99 643.02 693.24 653.13 689.57 663.25 688.14 673.37 685.59 689.77 672.21 700.3 662.24 706.19 652.27 713.49 642.31 721.9 632.34 731.07 622.37 740.64 612.4 750.23 602.44 759.45 592.47 767.92 582.5 775.31 572.54 781.31 562.57 785.69 552.6 788.27 542.64 788.95 532.67 787.69 522.7 784.55 512.73 779.66 502.77 773.21 492.8 765.46 482.83 756.73 472.87 747.36 462.9 737.73 452.93 728.24 442.97 719.26 433 711.16 423.03 704.25 413.07 698.83 403.1 695.11 393.13 693.24 383.16 693.29 373.2 695.26 363.23 699.07 353.26 704.58 343.3 711.55 333.33 719.71 323.36 728.72 313.4 738.23 303.43 747.85 293.46 757.2 283.49 765.89 273.53 773.58 263.56 779.96 253.59 784.76 243.63 787.8 233.66 788.96 223.69 788.19 213.73 785.51 203.76 781.04 193.79 774.96 183.83 767.5 173.86 758.98 163.89 749.74 153.92 740.14 143.96 730.58 133.99 721.44 124.02 713.08 114.06 705.85 104.09 700.04 94.12 695.87 84.16 693.53 74.19 693.09 59.09 691.19 53.87 677.62 54.01 667.46 54.36 657.29 54.92 647.12 55.65 636.96 56.53 626.79 57.52 616.62 58.57 606.46 59.64 596.29 60.68 586.13 61.65 575.96 62.5 565.79 63.2 555.63 63.72 545.46 64.03 535.29 64.12 525.13 63.99 514.96 63.64 504.79 63.09 494.63 62.37 484.46 61.49 474.3 60.51 464.13 59.46 453.96 58.39 443.8 57.34 433.63 56.37 423.46 55.51 413.3 54.81 403.13 54.28 392.97 53.97 382.8 53.87 372.63 53.99 362.47 54.33 352.3 54.87 342.13 55.6 331.97 56.47 321.8 57.45 311.64 58.5 301.47 59.57 291.3 60.61 281.14 61.59 270.97 62.45 260.8 63.16 250.64 63.69 240.47 64.02 230.3 64.12 220.14 64.01 209.97 63.68 199.81 63.14 189.64 62.42 179.47 61.56 169.31 60.58 159.14 59.53 148.97 58.46 138.81 57.41 128.64 56.44 118.48 55.57 108.31 54.85 98.14 54.31 87.98 53.98 77.81 53.87 67.64 53.97 57.48 54.3 47.31" stroke-dasharray="0 0" transform="rotate(1.1935483870967742, 400, 400)" opacity="0.08"></path><path d="M64.21 56.83Q73.82 56.43 83.42 56.54 93.02 57.16 102.63 58.26 112.23 59.81 121.84 61.74 131.44 63.98 141.05 66.45 150.65 69.05 160.26 71.69 169.86 74.26 179.47 76.68 189.07 78.84 198.68 80.67 208.28 82.09 217.89 83.06 227.49 83.53 237.1 83.5 246.7 82.95 256.31 81.92 265.91 80.44 275.52 78.56 285.12 76.36 294.72 73.91 304.33 71.33 313.93 68.69 323.54 66.1 333.14 63.65 342.75 61.45 352.35 59.57 361.96 58.08 371.56 57.04 381.17 56.49 390.77 56.45 400.38 56.93 409.98 57.89 419.59 59.31 429.19 61.14 438.8 63.3 448.4 65.71 458.01 68.28 467.61 70.92 477.22 73.52 486.82 75.99 496.42 78.24 506.03 80.17 515.63 81.72 525.24 82.83 534.84 83.45 544.45 83.56 554.05 83.17 563.66 82.27 573.26 80.91 582.87 79.14 592.47 77.03 602.08 74.65 611.68 72.09 621.29 69.45 630.89 66.84 640.5 64.34 650.1 62.06 659.71 60.08 673.6 62.79 679 76.93 682.18 86.75 687.31 96.57 694.18 106.39 702.51 116.21 711.95 126.03 722.14 135.84 732.64 145.66 743.04 155.48 752.9 165.3 761.83 175.12 769.47 184.94 775.49 194.76 779.66 204.57 781.81 214.39 781.85 224.21 779.77 234.03 775.67 243.85 769.7 253.67 762.12 263.48 753.22 273.3 743.38 283.12 733 292.94 722.49 302.76 712.29 312.58 702.81 322.4 694.44 332.21 687.52 342.03 682.32 351.85 679.07 361.67 677.9 371.49 678.85 381.31 681.88 391.13 686.87 400.94 693.62 410.76 701.85 420.58 711.23 430.4 721.38 440.22 731.87 450.04 742.29 459.86 752.21 469.67 761.22 479.49 768.96 489.31 775.11 499.13 779.42 508.95 781.72 518.77 781.92 528.59 779.99 538.4 776.03 548.22 770.19 558.04 762.72 567.86 753.91 577.68 744.13 587.5 733.77 597.32 723.26 607.13 713.02 616.95 703.47 626.77 695.01 636.59 687.97 646.41 682.64 656.23 679.24 666.04 677.91 675.86 678.7 685.68 669.1 689.78 659.5 695.39 649.9 702.31 640.3 710.28 630.7 718.99 621.09 728.11 611.49 737.31 601.89 746.23 592.29 754.53 582.69 761.91 573.08 768.09 563.48 772.83 553.88 775.95 544.28 777.34 534.68 776.94 525.08 774.77 515.47 770.91 505.87 765.5 496.27 758.76 486.67 750.93 477.07 742.31 467.46 733.22 457.86 724.02 448.26 715.04 438.66 706.62 429.06 699.08 419.46 692.72 409.85 687.76 400.25 684.39 390.65 682.74 381.05 682.88 371.45 684.8 361.84 688.42 352.24 693.61 342.64 700.17 333.04 707.86 323.44 716.39 313.83 725.43 304.23 734.64 294.63 743.67 285.03 752.19 275.43 759.87 265.83 766.43 256.22 771.61 246.62 775.21 237.02 777.12 227.42 777.24 217.82 775.58 208.21 772.2 198.61 767.23 189.01 760.85 179.41 753.31 169.81 744.89 160.21 735.9 150.6 726.69 141 717.61 131.4 709 121.8 701.17 112.2 694.44 102.59 689.05 92.99 685.2 83.39 683.04 68.94 678.46 64.25 664.46 64.63 654.66 65.24 644.86 66.03 635.05 66.99 625.25 68.07 615.45 69.23 605.65 70.42 595.85 71.6 586.05 72.7 576.25 73.7 566.45 74.55 556.65 75.21 546.85 75.66 537.05 75.87 527.25 75.85 517.45 75.59 507.65 75.1 497.85 74.41 488.05 73.53 478.25 72.51 468.45 71.39 458.65 70.21 448.85 69.02 439.05 67.87 429.25 66.81 419.45 65.88 409.65 65.11 399.84 64.55 390.04 64.2 380.24 64.1 370.44 64.23 360.64 64.6 350.84 65.18 341.04 65.97 331.24 66.92 321.44 67.99 311.64 69.15 301.84 70.34 292.04 71.51 282.24 72.63 272.44 73.63 262.64 74.49 252.84 75.17 243.04 75.63 233.24 75.87 223.44 75.86 213.64 75.62 203.84 75.15 194.04 74.46 184.24 73.6 174.44 72.59 164.63 71.47 154.83 70.29 145.03 69.11 135.23 67.95 125.43 66.88 115.63 65.94 105.83 65.16 96.03 64.58 86.23 64.22 76.43 64.1 66.63 64.21 56.83" stroke-dasharray="0 0" transform="rotate(2.3870967741935485, 400, 400)" opacity="0.11"></path><path d="M74.33 66.86Q83.6 66.99 92.87 67.62 102.14 68.73 111.41 70.26 120.68 72.18 129.95 74.4 139.22 76.86 148.49 79.46 157.77 82.12 167.04 84.74 176.31 87.22 185.58 89.49 194.85 91.46 204.12 93.05 213.39 94.23 222.66 94.93 231.93 95.14 241.2 94.86 250.48 94.09 259.75 92.85 269.02 91.2 278.29 89.18 287.56 86.88 296.83 84.37 306.1 81.74 315.37 79.08 324.64 76.5 333.92 74.07 343.19 71.88 352.46 70.02 361.73 68.54 371 67.5 380.27 66.94 389.54 66.88 398.81 67.31 408.08 68.23 417.35 69.59 426.63 71.36 435.9 73.47 445.17 75.84 454.44 78.39 463.71 81.04 472.98 83.69 482.25 86.24 491.52 88.6 500.79 90.7 510.07 92.45 519.34 93.8 528.61 94.7 537.88 95.12 547.15 95.04 556.42 94.46 565.69 93.4 574.96 91.91 584.23 90.04 593.5 87.84 602.78 85.41 612.05 82.81 621.32 80.16 630.59 77.53 639.86 75.03 649.13 72.73 663.61 74.68 671.89 88.17 676.74 97.71 683.21 107.25 691.04 116.78 699.93 126.32 709.55 135.86 719.53 145.4 729.49 154.94 739.05 164.48 747.84 174.02 755.54 183.56 761.84 193.1 766.52 202.63 769.38 212.17 770.32 221.71 769.31 231.25 766.39 240.79 761.66 250.33 755.3 259.87 747.56 269.41 738.73 278.95 729.15 288.49 719.19 298.02 709.22 307.56 699.61 317.1 690.75 326.64 682.97 336.18 676.55 345.72 671.75 355.26 668.75 364.8 667.67 374.34 668.54 383.87 671.33 393.41 675.93 402.95 682.18 412.49 689.83 422.03 698.59 431.57 708.13 441.11 718.08 450.65 728.06 460.19 737.7 469.72 746.63 479.26 754.5 488.8 761.03 498.34 765.95 507.88 769.08 517.42 770.31 526.96 769.58 536.5 766.93 546.04 762.45 555.58 756.31 565.11 748.75 574.65 740.07 584.19 730.57 593.73 720.64 603.27 710.64 612.81 700.97 622.35 691.98 631.89 684.01 641.43 677.38 650.96 672.34 660.5 669.07 670.04 667.7 679.58 658.43 685.01 649.16 691.64 639.89 699.24 630.62 707.53 621.35 716.22 612.08 725.02 602.8 733.6 593.53 741.66 584.26 748.93 574.99 755.14 565.72 760.08 556.45 763.56 547.18 765.48 537.9 765.75 528.63 764.38 519.36 761.4 510.09 756.93 500.82 751.12 491.55 744.18 482.27 736.35 473 727.91 463.73 719.15 454.46 710.39 445.19 701.93 435.92 694.07 426.65 687.09 417.37 681.24 408.1 676.72 398.83 673.69 389.56 672.26 380.29 672.48 371.02 674.33 361.75 677.77 352.47 682.65 343.2 688.82 333.93 696.06 324.66 704.1 315.39 712.67 306.12 721.46 296.85 730.16 287.57 738.47 278.3 746.1 269.03 752.77 259.76 758.24 250.49 762.33 241.22 764.9 231.95 765.84 222.67 765.13 213.4 762.8 204.13 758.91 194.86 753.63 185.59 747.11 176.32 739.61 167.04 731.38 157.77 722.72 148.5 713.92 139.23 705.3 129.96 697.16 120.69 689.8 111.42 683.46 102.14 678.38 92.87 674.73 79.05 667.69 74.93 653.27 75.59 643.81 76.45 634.36 77.48 624.9 78.65 615.44 79.91 605.98 81.21 596.52 82.5 587.06 83.73 577.61 84.86 568.15 85.84 558.69 86.64 549.23 87.22 539.77 87.57 530.31 87.66 520.86 87.5 511.4 87.1 501.94 86.46 492.48 85.61 483.02 84.59 473.56 83.43 464.11 82.17 454.65 80.88 445.19 79.58 435.73 78.34 426.27 77.21 416.81 76.21 407.36 75.4 397.9 74.8 388.44 74.44 378.98 74.33 369.52 74.47 360.06 74.86 350.61 75.48 341.15 76.31 331.69 77.33 322.23 78.48 312.77 79.72 303.31 81.02 293.86 82.32 284.4 83.56 274.94 84.71 265.48 85.71 256.02 86.54 246.56 87.15 237.11 87.53 227.65 87.66 218.19 87.54 208.73 87.17 199.27 86.56 189.81 85.74 180.36 84.74 170.9 83.6 161.44 82.36 151.98 81.06 142.52 79.77 133.06 78.52 123.61 77.36 114.15 76.34 104.69 75.5 95.23 74.87 85.77 74.48 76.31 74.33 66.86" stroke-dasharray="0 0" transform="rotate(3.5806451612903225, 400, 400)" opacity="0.14"></path><path d="M84.76 77.48Q93.73 78.16 102.7 79.29 111.66 80.83 120.63 82.75 129.6 84.97 138.57 87.42 147.54 90.02 156.51 92.69 165.48 95.33 174.45 97.86 183.42 100.21 192.39 102.28 201.36 104.01 210.33 105.35 219.3 106.24 228.27 106.67 237.24 106.62 246.21 106.09 255.18 105.09 264.15 103.66 273.12 101.85 282.08 99.71 291.05 97.32 300.02 94.76 308.99 92.1 317.96 89.44 326.93 86.87 335.9 84.46 344.87 82.3 353.84 80.46 362.81 79 371.78 77.97 380.75 77.4 389.72 77.3 398.69 77.69 407.66 78.56 416.63 79.86 425.6 81.56 434.57 83.61 443.54 85.93 452.5 88.45 461.47 91.09 470.44 93.76 479.41 96.37 488.38 98.83 497.35 101.07 506.32 103.02 515.29 104.6 524.26 105.76 533.23 106.47 542.2 106.71 551.17 106.46 560.14 105.74 569.11 104.56 578.08 102.98 587.05 101.03 596.02 98.78 604.99 96.31 613.96 93.7 622.92 91.03 631.89 88.39 640.86 85.88 655.85 87.18 666.57 100.07 672.74 109.34 680.17 118.62 688.58 127.89 697.69 137.16 707.16 146.44 716.66 155.71 725.85 164.98 734.4 174.26 742.02 183.53 748.44 192.81 753.41 202.08 756.77 211.35 758.4 220.63 758.24 229.9 756.3 239.18 752.64 248.45 747.39 257.72 740.75 267 732.94 276.27 724.25 285.55 714.98 294.82 705.46 304.09 696.03 313.37 687.03 322.64 678.77 331.91 671.55 341.19 665.62 350.46 661.2 359.74 658.44 369.01 657.44 378.28 658.23 387.56 660.79 396.83 665.03 406.11 670.8 415.38 677.88 424.65 686.04 433.93 694.97 443.2 704.37 452.47 713.89 461.75 723.21 471.02 731.98 480.3 739.91 489.57 746.7 498.84 752.11 508.12 755.96 517.39 758.11 526.67 758.48 535.94 757.05 545.21 753.88 554.49 749.08 563.76 742.83 573.03 735.33 582.31 726.87 591.58 717.73 600.86 708.25 610.13 698.76 619.4 689.6 628.68 681.09 637.95 673.54 647.23 667.21 656.5 662.33 665.77 659.07 675.05 650.09 681.46 641.12 688.75 632.15 696.66 623.18 704.96 614.2 713.35 605.23 721.56 596.26 729.33 587.28 736.4 578.31 742.53 569.34 747.53 560.36 751.23 551.39 753.5 542.42 754.28 533.45 753.54 524.47 751.29 515.5 747.63 506.53 742.66 497.55 736.55 488.58 729.5 479.61 721.75 470.63 713.54 461.66 705.15 452.69 696.85 443.72 688.92 434.74 681.62 425.77 675.18 416.8 669.83 407.82 665.73 398.85 663.01 389.88 661.78 380.9 662.07 371.93 663.87 362.96 667.12 353.99 671.72 345.01 677.5 336.04 684.29 327.07 691.86 318.09 699.97 309.12 708.33 300.15 716.68 291.17 724.75 282.2 732.27 273.23 738.99 264.26 744.69 255.28 749.18 246.31 752.32 237.34 754 228.36 754.16 219.39 752.81 210.42 749.99 201.44 745.78 192.47 740.33 183.5 733.82 174.53 726.46 165.55 718.49 156.58 710.17 147.61 701.79 138.63 693.61 129.66 685.9 120.69 678.92 111.71 672.89 102.74 668.02 89.52 658.83 85.99 644.06 86.92 634.92 88.04 625.79 89.29 616.65 90.64 607.51 92.03 598.37 93.43 589.23 94.77 580.09 96.02 570.95 97.12 561.82 98.04 552.68 98.75 543.54 99.21 534.4 99.42 525.26 99.37 516.12 99.05 506.99 98.49 497.85 97.69 488.71 96.69 479.57 95.52 470.43 94.23 461.29 92.86 452.16 91.46 443.02 90.08 433.88 88.76 424.74 87.56 415.6 86.52 406.46 85.67 397.32 85.05 388.19 84.67 379.05 84.56 369.91 84.7 360.77 85.11 351.63 85.76 342.49 86.63 333.36 87.69 324.22 88.91 315.08 90.23 305.94 91.62 296.8 93.02 287.66 94.39 278.53 95.67 269.39 96.81 260.25 97.79 251.11 98.56 241.97 99.1 232.83 99.39 223.69 99.41 214.56 99.17 205.42 98.68 196.28 97.95 187.14 97 178 95.88 168.86 94.62 159.73 93.27 150.59 91.87 141.45 90.48 132.31 89.14 123.17 87.9 114.03 86.81 104.9 85.9 95.76 85.21 86.62 84.76 77.48" stroke-dasharray="0 0" transform="rotate(4.774193548387097, 400, 400)" opacity="0.17"></path><path d="M95.6 88.76Q104.29 89.95 112.99 91.54 121.69 93.47 130.38 95.7 139.08 98.15 147.77 100.75 156.47 103.42 165.17 106.07 173.86 108.63 182.56 111.02 191.25 113.16 199.95 114.99 217.34 117.29 234.73 118.27 243.43 117.94 252.12 117.17 260.82 115.95 269.52 114.35 278.21 112.39 286.91 110.15 295.6 107.69 304.3 105.08 313 102.41 321.69 99.76 330.39 97.21 339.08 94.83 347.78 92.71 356.48 90.9 373.87 88.65 391.26 87.73 399.95 88.08 408.65 88.88 417.35 90.12 426.04 91.75 434.74 93.73 443.43 95.98 452.13 98.46 460.83 101.07 469.52 103.74 478.22 106.39 486.91 108.93 495.61 111.29 504.31 113.4 513 115.19 530.39 117.38 547.79 118.25 556.48 117.87 565.18 117.04 573.87 115.78 582.57 114.13 591.26 112.13 599.96 109.86 608.66 107.38 617.35 104.76 626.05 102.09 634.74 99.45 650.11 100.25 662.77 112.6 669.87 121.62 677.88 130.64 686.52 139.66 695.5 148.68 704.53 157.69 713.31 166.71 721.56 175.73 728.99 184.75 735.37 193.77 740.47 202.79 744.15 211.81 746.26 220.83 746.75 229.84 745.6 238.86 742.84 247.88 738.56 256.9 732.91 265.92 726.08 274.94 718.29 283.96 709.79 292.98 700.87 301.99 691.82 311.01 682.95 320.03 674.53 329.05 666.86 338.07 660.19 347.09 654.73 356.11 650.66 365.13 648.13 374.15 647.21 383.16 647.93 392.18 650.28 401.2 654.17 410.22 659.47 419.24 666.01 428.26 673.57 437.28 681.91 446.3 690.75 455.31 699.79 464.33 708.74 473.35 717.31 482.37 725.2 491.39 732.16 500.41 737.96 509.43 742.4 518.45 745.35 527.46 746.7 536.48 746.41 545.5 744.48 554.52 740.99 563.54 736.04 572.56 729.81 581.58 722.49 590.6 714.33 599.61 705.6 608.63 696.58 617.65 687.57 626.67 678.88 635.69 670.79 644.71 663.56 653.73 657.43 662.75 652.62 671.76 643.91 678.79 635.21 686.38 626.51 694.29 617.81 702.28 609.1 710.11 600.4 717.54 591.7 724.35 583 730.31 574.3 735.26 565.59 739.03 548.19 741.95 530.78 740.72 522.08 737.73 513.38 733.49 504.68 728.13 495.98 721.82 487.27 714.75 478.57 707.14 469.87 699.22 461.17 691.23 452.47 683.42 443.76 676.02 435.06 669.26 426.36 663.35 417.66 658.47 408.95 654.77 391.55 652.02 374.15 653.41 365.44 656.48 356.74 660.79 348.04 666.21 339.34 672.57 330.64 679.68 321.93 687.32 313.23 695.25 304.53 703.24 295.83 711.03 287.12 718.4 278.42 725.11 269.72 730.96 261.02 735.78 252.32 739.4 234.91 741.99 217.51 740.43 208.81 737.28 200.1 732.9 191.4 727.42 182.7 721.01 174 713.86 165.29 706.2 156.59 698.26 147.89 690.28 139.19 682.5 130.49 675.17 121.78 668.5 113.08 662.71 100.43 651.77 97.48 636.73 98.67 627.9 100.01 619.06 101.44 610.22 102.93 601.38 104.41 592.54 105.85 583.71 107.2 574.87 108.41 566.03 109.43 557.19 110.25 548.35 110.83 539.51 111.14 530.68 111.19 521.84 110.97 513 110.48 504.16 109.75 495.32 108.79 486.48 107.65 477.65 106.34 468.81 104.93 459.97 103.46 451.13 101.97 442.29 100.51 433.46 99.13 424.62 97.89 415.78 96.81 406.94 95.93 398.1 95.29 389.26 94.9 380.43 94.79 371.59 94.94 362.75 95.35 353.91 96.03 345.07 96.93 336.23 98.03 327.4 99.29 318.56 100.68 309.72 102.14 300.88 103.63 292.04 105.1 283.21 106.51 274.37 107.79 265.53 108.92 256.69 109.85 247.85 110.55 239.01 111.01 230.18 111.2 221.34 111.12 212.5 110.77 203.66 110.16 194.82 109.32 185.99 108.27 177.15 107.05 168.31 105.69 159.47 104.24 150.63 102.75 141.79 101.27 132.96 99.84 124.12 98.52 115.28 97.35 106.44 96.36 97.6 95.6 88.76" stroke-dasharray="0 0" transform="rotate(5.967741935483871, 400, 400)" opacity="0.20"></path><path d="M106.93 100.74Q123.82 104.5 140.71 109.07 149.15 111.67 157.6 114.33 166.04 116.98 174.49 119.55 191.38 124 208.27 127.6 225.16 129.3 242.05 129.69 258.94 127.89 275.83 124.9 284.27 122.82 292.72 120.49 301.16 117.97 309.61 115.34 318.05 112.67 326.5 110.04 343.39 105.31 360.28 101.33 377.17 99.11 394.06 98.16 410.95 99.42 427.84 101.93 444.73 106.12 461.62 110.98 470.06 113.64 478.51 116.3 486.95 118.9 495.4 121.36 512.29 125.42 529.18 128.51 546.07 129.57 562.96 129.3 579.85 126.9 596.74 123.39 605.18 121.12 613.63 118.64 622.07 116.03 630.52 113.37 646.11 113.82 660.13 125.7 667.79 134.47 676 143.24 684.52 152.01 693.09 160.78 701.43 169.54 709.31 178.31 716.47 187.08 722.7 195.85 727.8 204.62 731.62 213.39 734.05 222.16 735 230.93 734.45 239.7 732.42 248.46 728.97 257.23 724.19 266 718.25 274.77 711.32 283.54 703.62 292.31 695.37 301.08 686.84 309.85 678.28 318.62 669.96 327.38 662.13 336.15 655.03 344.92 648.88 353.69 643.86 362.46 640.14 371.23 637.82 380 636.98 388.77 637.64 397.54 639.78 406.3 643.33 415.07 648.19 423.84 654.21 432.61 661.21 441.38 668.96 450.15 677.23 458.92 685.78 467.69 694.33 476.45 702.62 485.22 710.41 493.99 717.44 502.76 723.52 511.53 728.44 520.3 732.07 529.07 734.28 537.84 735.01 546.61 734.25 555.37 732 564.14 728.35 572.91 723.39 581.68 717.3 590.45 710.24 599.22 702.44 607.99 694.14 616.76 685.58 625.53 677.04 634.29 668.78 643.06 661.04 651.83 654.07 660.6 648.07 669.37 639.62 676.65 631.16 684.2 622.71 691.8 614.26 699.23 605.8 706.29 597.35 712.77 588.9 718.5 580.44 723.3 563.54 729 546.63 731.02 538.17 729.81 529.72 727.36 521.27 723.73 512.81 719.03 504.36 713.39 495.91 706.98 487.45 699.97 479 692.56 470.55 684.97 462.09 677.41 453.64 670.09 445.19 663.22 436.73 657 428.28 651.6 419.83 647.18 411.37 643.86 394.47 641.5 377.56 642.95 369.11 645.85 360.65 649.88 352.2 654.95 343.74 660.89 335.29 667.55 326.84 674.73 318.38 682.23 309.93 689.83 301.48 697.33 293.02 704.5 284.57 711.16 276.12 717.09 267.66 722.15 259.21 726.18 242.3 730.1 225.4 730.25 216.94 728.11 208.49 724.78 200.04 720.34 191.58 714.94 183.13 708.71 174.68 701.84 166.22 694.51 157.77 686.95 149.31 679.36 140.86 671.96 132.41 664.95 123.95 658.54 111.82 646.29 109.42 631.12 112.38 614.01 115.49 596.9 118.37 579.79 120.85 562.68 122.29 545.57 122.97 528.46 122.31 511.36 120.87 494.25 118.4 477.14 115.52 460.03 112.41 442.92 109.45 425.81 107.18 408.7 105.53 391.59 105.15 374.49 105.59 357.38 107.3 340.27 109.62 323.16 112.6 306.05 115.71 288.94 118.56 271.83 120.99 254.72 122.37 237.61 122.97 220.51 122.23 203.4 120.72 186.29 118.2 169.18 115.29 152.07 112.19 134.96 109.26 117.85 108 109.3 106.93 100.74" stroke-dasharray="0 0" transform="rotate(7.161290322580645, 400, 400)" opacity="0.23"></path><path d="M118.78 113.42Q135.21 117.73 151.63 122.79 168.05 128.09 184.47 133.06 200.89 137.19 217.31 140.05 233.73 141.34 250.15 140.93 266.57 138.85 283 135.33 299.42 130.74 315.84 125.54 332.26 120.29 348.68 115.52 365.1 111.75 381.52 109.35 397.94 108.59 414.36 109.54 430.79 112.1 447.21 116 463.63 120.84 480.05 126.11 496.47 131.27 512.89 135.77 529.31 139.15 545.73 141.06 562.15 141.29 578.57 139.82 595 136.8 611.42 132.56 627.84 127.52 644.26 122.23 658.29 139.27 674.19 156.31 690.19 173.34 704.48 190.38 715.45 207.42 721.87 224.46 723.02 241.5 718.76 258.54 709.58 275.58 696.51 292.62 681.02 309.66 664.85 326.69 649.82 343.73 637.63 360.77 629.63 377.81 626.75 394.85 629.29 411.89 636.97 428.93 648.93 445.97 663.83 463.01 679.98 480.05 695.56 497.08 708.84 514.12 718.31 531.16 722.9 548.2 722.11 565.24 716.01 582.28 705.3 599.32 691.18 616.36 675.24 633.4 659.27 650.43 645.07 667.47 628.63 681.87 612.19 695.55 595.75 707.09 579.31 715.28 562.87 719.27 546.42 718.65 529.98 713.48 513.54 704.29 497.1 692.05 480.66 678.03 464.22 663.7 447.78 650.54 431.34 639.93 414.89 632.98 398.45 630.41 382.01 632.48 365.57 638.99 349.13 649.25 332.69 662.2 316.25 676.47 299.8 690.6 283.36 703.1 266.92 712.66 250.48 718.31 234.04 719.43 217.6 715.93 201.16 708.15 184.71 696.92 168.27 683.41 151.83 669.01 135.39 655.25 118.95 643.53 121.82 626.97 125.04 610.4 128.27 593.84 131.12 577.27 133.28 560.7 134.51 544.14 134.68 527.57 133.75 511.01 131.83 494.44 129.15 477.87 126 461.31 122.74 444.74 119.73 428.18 117.31 411.61 115.76 395.04 115.25 378.48 115.83 361.91 117.44 345.35 119.91 328.78 122.94 312.21 126.21 295.65 129.34 279.08 131.98 262.52 133.84 245.95 134.7 229.38 134.47 212.82 133.17 196.25 130.95 179.68 128.07 163.12 124.83 146.55 121.62 129.99 118.78 113.42" stroke-dasharray="0 0" transform="rotate(8.35483870967742, 400, 400)" opacity="0.26"></path><path d="M131.18 126.76Q147.16 131.56 163.13 136.79 179.1 141.95 195.07 146.53 211.04 150.1 227.02 152.31 242.99 152.96 258.96 151.97 274.93 149.45 290.9 145.63 306.87 140.89 322.85 135.68 338.82 130.5 354.79 125.84 370.76 122.17 386.73 119.82 402.71 119.03 418.68 119.86 434.65 122.25 450.62 125.97 466.59 130.64 482.57 135.83 498.54 141.04 514.51 145.76 530.48 149.54 546.45 152.02 562.42 152.96 578.4 152.27 594.37 150.01 610.34 146.41 626.31 141.8 642.28 136.64 656.83 153.17 672.13 169.71 686.58 186.24 698.68 202.77 707.19 219.3 711.22 235.83 710.34 252.37 704.66 268.9 694.75 285.43 681.66 301.96 666.73 318.49 651.52 335.03 637.6 351.56 626.43 368.09 619.14 384.62 616.52 401.16 618.82 417.69 625.8 434.22 636.75 450.75 650.53 467.28 665.7 483.82 680.7 500.35 693.96 516.88 704.12 533.41 710.11 549.95 711.31 566.48 707.61 583.01 699.38 599.54 687.48 616.07 673.14 632.61 657.85 649.14 643.2 665.67 627.21 679.07 611.22 691.02 595.22 700.37 579.23 706.22 563.23 708.01 547.24 705.57 531.24 699.14 515.25 689.32 499.26 677.08 483.26 663.57 467.27 650.1 451.27 637.97 435.28 628.34 419.29 622.14 403.29 619.97 387.3 622.02 371.3 628.11 355.31 637.65 339.31 649.73 323.32 663.17 307.33 676.7 291.33 689 275.34 698.9 259.34 705.44 243.35 708 227.35 706.33 211.36 700.59 195.37 691.33 179.37 679.44 163.38 666.07 147.38 652.5 131.39 640.03 134.63 623.99 138.02 607.95 141.2 591.91 143.83 575.87 145.66 559.83 146.48 543.79 146.21 527.75 144.88 511.71 142.63 495.67 139.7 479.63 136.37 463.59 133.01 447.55 129.96 431.51 127.53 415.47 125.99 399.43 125.48 383.39 126.06 367.35 127.67 351.31 130.15 335.27 133.23 319.23 136.6 303.2 139.91 287.16 142.81 271.12 145 255.08 146.26 239.04 146.46 223 145.57 206.96 143.68 190.92 141 174.88 137.8 158.84 134.41 142.8 131.18 126.76" stroke-dasharray="0 0" transform="rotate(9.548387096774194, 400, 400)" opacity="0.30"></path><path d="M144.1 140.69Q159.63 145.77 175.16 150.97 190.69 155.81 206.22 159.88 221.74 162.81 237.27 164.34 252.8 164.33 268.33 162.8 283.86 159.87 299.39 155.8 314.92 150.95 330.45 145.76 345.97 140.67 361.5 136.14 377.03 132.58 392.56 130.28 408.09 129.46 423.62 130.19 439.15 132.41 454.68 135.91 470.2 140.4 485.73 145.46 501.26 150.66 516.79 155.54 532.32 159.66 547.85 162.67 563.38 164.29 578.91 164.38 594.43 162.93 609.96 160.08 625.49 156.07 641.02 151.26 655.37 167.27 669.49 183.28 682.03 199.29 691.81 215.3 697.89 231.31 699.68 247.32 697.03 263.33 690.17 279.33 679.77 295.34 666.81 311.35 652.54 327.36 638.31 343.37 625.48 359.38 615.28 375.39 608.67 391.4 606.29 407.41 608.36 423.42 614.69 439.43 624.67 455.44 637.35 471.45 651.53 487.46 665.84 503.47 678.93 519.48 689.55 535.49 696.68 551.5 699.64 567.51 698.16 583.52 692.37 599.53 682.82 615.54 670.43 631.54 656.38 647.55 642 663.56 626.45 675.49 610.9 685.43 595.35 692.5 579.79 696.08 564.24 695.86 548.69 691.85 533.14 684.4 517.59 674.18 502.03 662.09 486.48 649.2 470.93 636.64 455.38 625.52 439.83 616.83 424.27 611.34 408.72 609.53 393.17 611.56 377.62 617.25 362.07 626.1 346.51 637.32 330.96 649.93 315.41 662.81 299.86 674.82 284.31 684.91 268.75 692.17 253.2 695.98 237.65 695.98 222.1 692.19 206.55 684.93 190.99 674.86 175.44 662.85 159.89 649.97 144.34 637.36 147.81 621.84 151.21 606.32 154.2 590.79 156.51 575.27 157.91 559.75 158.27 544.23 157.55 528.71 155.83 513.19 153.26 497.67 150.1 482.15 146.64 466.63 143.21 451.11 140.15 435.59 137.74 420.06 136.21 404.54 135.71 389.02 136.28 373.5 137.88 357.98 140.35 342.46 143.45 326.94 146.89 311.42 150.34 295.9 153.47 280.38 155.98 264.85 157.64 249.33 158.28 233.81 157.85 218.29 156.38 202.77 154.01 187.25 150.98 171.73 147.57 156.21 144.1 140.69" stroke-dasharray="0 0" transform="rotate(10.741935483870968, 400, 400)" opacity="0.33"></path><path d="M157.47 155.1Q172.55 160.25 187.63 165.21 202.71 169.59 217.79 173.04 232.86 175.26 247.94 176.09 263.02 175.45 278.1 173.41 293.18 170.11 308.26 165.84 323.34 160.93 338.42 155.78 353.5 150.82 368.57 146.43 383.65 142.98 398.73 140.74 413.81 139.9 428.89 140.52 443.97 142.56 459.05 145.84 474.13 150.11 489.21 155.02 504.28 160.16 519.36 165.13 534.44 169.53 549.52 172.99 564.6 175.23 579.68 176.09 594.76 175.48 609.84 173.45 624.92 170.18 639.99 165.92 653.49 181.38 665.99 196.85 676.39 212.31 683.79 227.78 687.54 243.24 687.31 258.7 683.13 274.17 675.35 289.63 664.66 305.1 652 320.56 638.46 336.03 625.22 351.49 613.46 366.96 604.18 382.42 598.21 397.88 596.06 413.35 597.92 428.81 603.63 444.28 612.68 459.74 624.3 475.21 637.46 490.67 651.02 506.13 663.79 521.6 674.66 537.06 682.67 552.53 687.14 567.99 687.66 583.46 684.19 598.92 677.04 614.39 666.83 629.85 654.46 645.31 640.99 660.78 625.89 670.88 610.79 678.64 595.69 683.44 580.58 684.89 565.48 682.86 550.38 677.53 535.28 669.33 520.18 658.92 505.07 647.13 489.97 634.93 474.87 623.31 459.77 613.19 444.67 605.4 429.56 600.58 414.46 599.1 399.36 601.1 384.26 606.4 369.16 614.58 354.06 624.98 338.95 636.75 323.85 648.95 308.75 660.59 293.65 670.72 278.55 678.53 263.44 683.38 248.34 684.89 233.24 682.93 218.14 677.65 203.04 669.49 187.94 659.11 172.83 647.34 157.73 635.14 161.27 620.14 164.52 605.14 167.2 590.14 169.07 575.14 169.98 560.13 169.85 545.13 168.67 530.13 166.57 515.13 163.72 500.13 160.36 485.13 156.81 470.13 153.35 455.13 150.3 440.13 147.92 425.12 146.42 410.12 145.94 395.12 146.5 380.12 148.07 365.12 150.5 350.12 153.59 335.12 157.07 320.12 160.62 305.12 163.95 290.11 166.75 275.11 168.79 260.11 169.89 245.11 169.95 230.11 168.97 215.11 167.02 200.11 164.29 185.11 161.01 170.1 157.47 155.1" stroke-dasharray="0 0" transform="rotate(11.935483870967742, 400, 400)" opacity="0.36"></path><path d="M171.19 169.87Q185.8 174.86 200.41 179.41 215.02 183.19 229.63 185.93 244.25 187.41 258.86 187.54 273.47 186.3 288.08 183.79 302.69 180.18 317.3 175.75 331.91 170.82 346.52 165.76 361.13 160.93 375.74 156.7 390.35 153.38 404.96 151.21 419.57 150.34 434.18 150.86 448.79 152.71 463.4 155.77 478.02 159.79 492.63 164.5 507.24 169.54 521.85 174.54 536.46 179.13 551.07 182.97 565.68 185.78 580.29 187.36 594.9 187.58 609.51 186.43 624.12 183.99 638.73 180.45 650.85 195.34 661.4 210.23 669.52 225.12 674.57 240.01 676.16 254.9 674.15 269.8 668.7 284.69 660.26 299.58 649.48 314.47 637.23 329.36 624.49 344.25 612.26 359.15 601.53 374.04 593.14 388.93 587.76 403.82 585.83 418.71 587.49 433.6 592.61 448.5 600.79 463.39 611.38 478.28 623.52 493.17 636.26 508.06 648.58 522.95 659.51 537.84 668.16 552.74 673.85 567.63 676.13 582.52 674.82 597.41 670.02 612.3 662.11 627.19 651.73 642.09 639.7 656.98 625.06 665.01 610.43 670.54 595.8 673.15 581.17 672.65 566.53 669.08 551.9 662.7 537.27 653.99 522.64 643.57 508.01 632.23 493.37 620.8 478.74 610.12 464.11 600.98 449.48 594.05 434.85 589.85 420.21 588.68 405.58 590.63 390.95 595.56 376.32 603.1 361.68 612.7 347.05 623.65 332.42 635.14 317.79 646.32 303.16 656.38 288.52 664.56 273.89 670.26 259.26 673.07 244.63 672.78 229.99 669.41 215.36 663.2 200.73 654.62 186.1 644.29 171.47 632.99 174.88 618.52 177.83 604.04 180.08 589.57 181.44 575.1 181.82 560.63 181.17 546.15 179.55 531.68 177.09 517.21 173.99 502.74 170.49 488.26 166.87 473.79 163.42 459.32 160.42 444.85 158.09 430.38 156.64 415.9 156.17 401.43 156.72 386.96 158.24 372.49 160.63 358.01 163.67 343.54 167.15 329.07 170.77 314.6 174.25 300.12 177.31 285.65 179.71 271.18 181.25 256.71 181.82 242.24 181.37 227.76 179.94 213.29 177.63 198.82 174.64 184.35 171.19 169.87" stroke-dasharray="0 0" transform="rotate(13.129032258064516, 400, 400)" opacity="0.39"></path><path d="M185.14 184.84Q199.25 189.45 213.37 193.43 227.48 196.51 241.59 198.48 255.71 199.22 269.82 198.67 283.94 196.87 298.05 193.94 312.16 190.08 326.28 185.54 340.39 180.63 354.51 175.68 368.62 171.02 382.73 166.96 396.85 163.77 410.96 161.67 425.08 160.79 439.19 161.2 453.3 162.87 467.42 165.68 481.53 169.45 495.65 173.93 509.76 178.81 523.87 183.77 537.99 188.48 552.1 192.62 566.22 195.92 580.33 198.15 594.44 199.16 608.56 198.9 622.67 197.36 636.79 194.67 647.13 208.96 655.51 223.24 661.32 237.53 664.15 251.82 663.79 266.11 660.27 280.39 653.83 294.68 644.95 308.97 634.27 323.26 622.56 337.55 610.66 351.83 599.43 366.12 589.69 380.41 582.14 394.7 577.33 408.98 575.6 423.27 577.07 437.56 581.65 451.85 589 466.14 598.58 480.42 609.72 494.71 621.59 509 633.35 523.29 644.15 537.58 653.2 551.86 659.85 566.15 663.62 580.44 664.24 594.73 661.67 609.01 656.08 623.3 647.88 637.59 637.67 651.88 623.54 657.74 609.41 661.07 595.27 661.65 581.14 659.45 567.01 654.6 552.87 647.44 538.74 638.44 524.61 628.21 510.47 617.42 496.34 606.81 482.21 597.09 468.07 588.89 453.94 582.78 439.81 579.16 425.67 578.27 411.54 580.17 397.41 584.74 383.28 591.67 369.14 600.49 355.01 610.62 340.88 621.38 326.74 632.05 312.61 641.9 298.48 650.29 284.34 656.66 270.21 660.57 256.08 661.76 241.94 660.16 227.81 655.87 213.68 649.18 199.54 640.54 185.41 630.52 188.54 616.59 191.05 602.66 192.76 588.74 193.55 574.81 193.36 560.88 192.2 546.95 190.17 533.03 187.39 519.1 184.09 505.17 180.48 491.24 176.85 477.32 173.44 463.39 170.5 449.46 168.25 435.53 166.85 421.61 166.4 407.68 166.93 393.75 168.4 379.82 170.71 365.9 173.7 351.97 177.13 338.04 180.78 324.11 184.37 310.19 187.64 296.26 190.36 282.33 192.33 268.4 193.41 254.48 193.52 240.55 192.65 226.62 190.87 212.69 188.31 198.77 185.14 184.84" stroke-dasharray="0 0" transform="rotate(14.32258064516129, 400, 400)" opacity="0.42"></path><path d="M199.15 199.82Q212.73 203.87 226.31 207.15 239.89 209.45 253.48 210.63 267.06 210.63 280.64 209.44 294.22 207.14 307.8 203.86 321.38 199.8 334.96 195.21 348.55 190.37 362.13 185.56 375.71 181.08 389.29 177.2 402.87 174.16 416.45 172.13 430.03 171.24 443.62 171.55 457.2 173.03 470.78 175.6 484.36 179.09 497.94 183.31 511.52 187.99 525.1 192.85 538.69 197.6 552.27 201.96 565.85 205.64 579.43 208.45 593.01 210.2 606.59 210.78 620.17 210.18 633.76 208.41 642.05 222.06 648.19 235.71 651.76 249.36 652.55 263.01 650.5 276.67 645.74 290.32 638.58 303.97 629.49 317.62 619.07 331.27 607.98 344.92 596.97 358.58 586.73 372.23 577.95 385.88 571.2 399.53 566.91 413.18 565.37 426.83 566.67 440.49 570.74 454.14 577.3 467.79 585.93 481.44 596.06 495.09 607.04 508.74 618.14 522.4 628.65 536.05 637.88 549.7 645.22 563.35 650.2 577 652.49 590.65 651.94 604.3 648.59 617.96 642.66 631.61 634.53 645.26 620.93 648.94 607.33 650.21 593.74 648.98 580.14 645.34 566.54 639.5 552.94 631.82 539.35 622.76 525.75 612.87 512.15 602.74 498.55 592.99 484.96 584.21 471.36 576.93 457.76 571.58 444.16 568.5 430.57 567.86 416.97 569.71 403.37 573.93 389.77 580.28 376.17 588.35 362.58 597.68 348.98 607.69 335.38 617.78 321.78 627.34 308.19 635.79 294.59 642.62 280.99 647.42 267.39 649.89 253.8 649.9 240.2 647.43 226.6 642.64 213 635.82 199.41 627.37 202.08 614.01 204.04 600.65 205.14 587.29 205.32 573.93 204.57 560.57 202.93 547.21 200.51 533.84 197.47 520.48 194.01 507.12 190.35 493.76 186.73 480.4 183.4 467.04 180.55 453.68 178.39 440.32 177.06 426.96 176.63 413.59 177.13 400.23 178.55 386.87 180.77 373.51 183.66 360.15 187.03 346.79 190.66 333.43 194.31 320.07 197.75 306.71 200.74 293.35 203.1 279.98 204.67 266.62 205.34 253.26 205.08 239.9 203.9 226.54 201.88 213.18 199.15 199.82" stroke-dasharray="0 0" transform="rotate(15.516129032258066, 400, 400)" opacity="0.45"></path><path d="M213.06 214.63Q226.06 217.98 239.07 220.46 252.08 221.94 265.09 222.34 278.1 221.63 291.1 219.86 304.11 217.12 317.12 213.55 330.13 209.36 343.13 204.77 356.14 200.03 369.15 195.4 382.16 191.12 395.17 187.44 408.17 184.54 421.18 182.59 434.19 181.7 447.2 181.9 460.21 183.2 473.21 185.52 486.22 188.73 499.23 192.66 512.24 197.09 525.25 201.8 538.25 206.51 551.26 210.98 564.27 214.96 577.28 218.24 590.28 220.64 603.29 222.02 616.3 222.32 629.31 221.51 635.42 234.5 639.34 247.48 640.84 260.46 639.83 273.45 636.37 286.43 630.66 299.41 623.03 312.39 613.94 325.38 603.92 338.36 593.54 351.34 583.43 364.33 574.17 377.31 566.31 390.29 560.3 403.28 556.5 416.26 555.14 429.24 556.28 442.23 559.87 455.21 565.69 468.19 573.4 481.18 582.56 494.16 592.62 507.14 602.99 520.13 613.07 533.11 622.27 546.09 630.05 559.08 635.95 572.06 639.62 585.04 640.85 598.03 639.58 611.01 635.87 623.99 629.94 636.97 616.92 638.58 603.89 637.99 590.87 635.22 577.85 630.44 564.83 623.89 551.81 615.94 538.79 607.02 525.77 597.6 512.75 588.21 499.73 579.35 486.71 571.49 473.69 565.08 460.67 560.46 447.65 557.87 434.63 557.46 421.61 559.25 408.59 563.14 395.57 568.92 382.55 576.28 369.52 584.82 356.5 594.08 343.48 603.54 330.46 612.71 317.44 621.08 304.42 628.19 291.4 633.67 278.38 637.21 265.36 638.62 252.34 637.83 239.32 634.87 226.3 629.92 213.28 623.23 215.37 610.46 216.68 597.69 217.13 584.92 216.7 572.15 215.4 559.38 213.32 546.62 210.57 533.85 207.32 521.08 203.76 508.31 200.1 495.54 196.54 482.77 193.31 470 190.58 457.23 188.53 444.47 187.26 431.7 186.86 418.93 187.34 406.16 188.68 393.39 190.8 380.62 193.58 367.85 196.85 355.09 200.42 342.32 204.09 329.55 207.63 316.78 210.84 304.01 213.53 291.24 215.55 278.47 216.77 265.7 217.13 252.94 216.6 240.17 215.22 227.4 213.06 214.63" stroke-dasharray="0 0" transform="rotate(16.70967741935484, 400, 400)" opacity="0.48"></path><path d="M226.67 229.08Q239.07 231.61 251.46 233.25 263.85 233.9 276.24 233.54 288.63 232.19 301.02 229.9 313.41 226.8 325.8 223.03 338.19 218.77 350.58 214.23 362.97 209.63 375.37 205.2 387.76 201.14 400.15 197.66 412.54 194.92 424.93 193.06 437.32 192.16 449.71 192.27 462.1 193.38 474.49 195.45 486.88 198.36 499.27 201.98 511.67 206.14 524.06 210.63 536.45 215.23 548.84 219.72 561.23 223.89 573.62 227.53 586.01 230.47 598.4 232.56 610.79 233.7 623.18 233.84 627.12 246.13 628.96 258.41 628.6 270.7 626.07 282.98 621.5 295.27 615.12 307.55 607.27 319.84 598.36 332.12 588.86 344.41 579.25 356.69 570.06 368.97 561.75 381.26 554.76 393.54 549.45 405.83 546.11 418.11 544.91 430.4 545.9 442.68 549.05 454.97 554.18 467.25 561.02 479.54 569.23 491.82 578.36 504.11 587.94 516.39 597.48 528.67 606.46 540.96 614.43 553.24 620.97 565.53 625.72 577.81 628.45 590.1 629.02 602.38 627.39 614.67 623.64 626.95 611.24 626.68 598.84 624.49 586.44 620.49 574.04 614.86 561.64 607.88 549.24 599.89 536.84 591.28 524.44 582.46 512.04 573.86 499.64 565.89 487.24 558.95 474.84 553.36 462.44 549.41 450.04 547.27 437.64 547.06 425.24 548.78 412.84 552.36 400.44 557.61 388.05 564.28 375.65 572.06 363.25 580.55 350.85 589.36 338.45 598.06 326.05 606.22 313.65 613.45 301.25 619.39 288.85 623.77 276.45 626.37 264.05 627.06 251.65 625.81 239.25 622.68 226.85 617.82 228.26 605.67 228.88 593.52 228.67 581.38 227.63 569.23 225.84 557.08 223.37 544.93 220.35 532.78 216.96 520.63 213.35 508.49 209.73 496.34 206.28 484.19 203.18 472.04 200.59 459.89 198.65 447.75 197.46 435.6 197.09 423.45 197.54 411.3 198.8 399.15 200.81 387.01 203.45 374.86 206.59 362.71 210.07 350.56 213.7 338.41 217.29 326.26 220.66 314.12 223.63 301.97 226.04 289.82 227.77 277.67 228.72 265.52 228.86 253.38 228.16 241.23 226.67 229.08" stroke-dasharray="0 0" transform="rotate(17.903225806451612, 400, 400)" opacity="0.51"></path><path d="M239.83 242.99Q251.56 244.65 263.29 245.42 275.02 245.27 286.75 244.21 298.48 242.29 310.21 239.57 321.94 236.19 333.67 232.29 345.4 228.03 357.14 223.59 368.87 219.18 380.6 214.97 392.33 211.14 404.06 207.87 415.79 205.29 427.52 203.52 439.25 202.62 450.98 202.64 462.71 203.58 474.44 205.39 486.17 208 497.91 211.3 509.64 215.14 521.37 219.37 533.1 223.79 544.83 228.22 556.56 232.47 568.29 236.35 580.02 239.71 591.75 242.39 603.48 244.28 615.21 245.3 617.09 256.86 617.06 268.42 615.13 279.98 611.38 291.54 606 303.1 599.22 314.66 591.37 326.21 582.8 337.77 573.92 349.33 565.14 360.89 556.86 372.45 549.46 384.01 543.3 395.57 538.65 407.13 535.73 418.69 534.68 430.25 535.54 441.81 538.28 453.37 542.76 464.92 548.78 476.48 556.07 488.04 564.28 499.6 573.03 511.16 581.92 522.72 590.53 534.28 598.47 545.84 605.37 557.4 610.91 568.96 614.83 580.52 616.95 592.08 610.46 608.47 592.02 609.84 580.28 604.9 568.54 598.73 556.81 591.58 545.07 583.76 533.34 575.61 521.6 567.48 509.86 559.71 498.13 552.64 486.39 546.57 474.66 541.77 462.92 538.43 451.18 536.71 439.45 536.67 427.71 538.32 415.98 541.59 404.24 546.33 392.5 552.35 380.77 559.38 369.03 567.13 357.3 575.26 345.56 583.41 333.82 591.25 322.09 598.44 310.35 604.66 298.62 609.65 286.88 613.2 275.14 615.15 263.41 615.42 251.67 613.99 239.94 610.94 240.62 599.44 240.53 587.94 239.67 576.44 238.09 564.95 235.85 553.45 233.07 541.95 229.86 530.45 226.39 518.95 222.8 507.45 219.26 495.95 215.95 484.46 213.01 472.96 210.58 461.46 208.77 449.96 207.66 438.46 207.32 426.96 207.74 415.47 208.92 403.97 210.8 392.47 213.29 380.97 216.27 369.47 219.61 357.97 223.16 346.47 226.74 334.98 230.2 323.48 233.37 311.98 236.11 300.48 238.28 288.98 239.79 277.48 240.57 265.99 240.58 254.49 239.83 242.99" stroke-dasharray="0 0" transform="rotate(19.096774193548388, 400, 400)" opacity="0.54"></path><path d="M252.35 256.19Q263.38 256.96 274.41 256.9 285.44 256.02 296.47 254.34 307.5 251.93 318.53 248.89 329.56 245.31 340.59 241.35 351.62 237.15 362.65 232.87 373.68 228.67 384.71 224.7 395.75 221.13 406.78 218.08 417.81 215.66 428.84 213.98 439.87 213.09 450.9 213.03 461.93 213.79 472.96 215.36 483.99 217.66 495.02 220.62 506.05 224.13 517.08 228.04 528.11 232.22 539.14 236.5 550.17 240.72 561.2 244.73 572.23 248.37 583.26 251.5 599.82 260.32 603.74 277.44 600.54 288.25 595.9 299.06 589.99 309.87 583.07 320.68 575.42 331.49 567.33 342.3 559.16 353.12 551.22 363.93 543.84 374.74 537.32 385.55 531.93 396.36 527.89 407.17 525.36 417.99 524.45 428.8 525.19 439.61 527.55 450.42 531.43 461.23 536.68 472.04 543.09 482.86 550.39 493.67 558.29 504.48 566.45 515.29 574.56 526.1 582.28 536.91 589.3 547.73 595.32 558.54 600.11 569.35 603.47 580.16 599.82 594.79 583.34 594.17 572.31 588.63 561.28 582.2 550.25 575.11 539.21 567.65 528.18 560.08 517.15 552.7 506.12 545.79 495.09 539.6 484.06 534.37 473.02 530.29 461.99 527.52 450.96 526.17 439.93 526.28 428.9 527.86 417.86 530.83 406.83 535.1 395.8 540.49 384.77 546.81 373.74 553.81 362.7 561.24 351.67 568.81 340.64 576.23 329.61 583.23 318.58 589.54 307.54 594.93 296.51 599.18 285.48 602.15 274.45 603.71 257.87 597.72 251.55 580.81 250.11 569.99 248.05 559.17 245.45 548.35 242.43 537.53 239.11 526.71 235.62 515.89 232.11 505.07 228.71 494.24 225.57 483.42 222.81 472.6 220.55 461.78 218.88 450.96 217.86 440.14 217.55 429.32 217.94 418.5 219.03 407.68 220.77 396.86 223.09 386.04 225.89 375.22 229.07 364.4 232.48 353.58 236 342.76 239.48 331.93 242.77 321.11 245.75 310.29 248.29 299.47 250.29 288.65 251.67 277.83 252.36 267.01 252.35 256.19" stroke-dasharray="0 0" transform="rotate(20.29032258064516, 400, 400)" opacity="0.57"></path><path d="M264.1 268.55Q274.4 268.46 284.69 267.64 294.99 266.11 305.28 263.92 315.58 261.13 325.87 257.85 336.16 254.18 346.46 250.24 356.75 246.16 367.05 242.07 377.34 238.12 387.64 234.42 397.93 231.1 408.23 228.28 418.52 226.03 428.82 224.44 439.11 223.56 449.41 223.42 459.7 224.02 469.99 225.35 480.29 227.35 490.58 229.97 500.88 233.11 511.17 236.68 521.47 240.55 531.76 244.6 542.06 248.7 552.35 252.71 562.65 256.5 572.94 259.94 587.62 269.16 589.12 285.45 584.99 295.5 579.77 305.54 573.62 315.59 566.78 325.64 559.49 335.69 552 345.73 544.58 355.78 537.5 365.83 531 375.88 525.32 385.92 520.66 395.97 517.18 406.02 515 416.06 514.22 426.11 514.84 436.16 516.86 446.21 520.19 456.25 524.73 466.3 530.3 476.35 536.72 486.4 543.75 496.44 551.14 506.49 558.63 516.54 565.96 526.59 572.87 536.63 579.1 546.68 584.45 556.73 588.71 566.78 587.43 579.79 572.84 577.68 562.55 571.83 552.25 565.4 541.96 558.59 531.67 551.63 521.37 544.75 511.08 538.17 500.79 532.12 490.5 526.78 480.2 522.33 469.91 518.93 459.62 516.68 449.33 515.66 439.03 515.9 428.74 517.4 418.45 520.09 408.15 523.9 397.86 528.7 387.57 534.34 377.28 540.62 366.98 547.33 356.69 554.27 346.4 561.2 336.1 567.89 325.81 574.13 315.52 579.7 305.23 584.43 294.93 588.16 284.64 590.76 268.81 587.16 261.89 572.06 259.94 561.94 257.49 551.82 254.64 541.71 251.48 531.59 248.12 521.47 244.69 511.35 241.3 501.24 238.08 491.12 235.14 481 232.59 470.89 230.51 460.77 228.99 450.65 228.06 440.54 227.78 430.42 228.14 420.3 229.13 410.18 230.72 400.07 232.86 389.95 235.46 379.83 238.44 369.72 241.68 359.6 245.08 349.48 248.51 339.37 251.85 329.25 254.99 319.13 257.8 309.01 260.19 298.9 262.08 288.78 263.4 278.66 264.1 268.55" stroke-dasharray="0 0" transform="rotate(21.483870967741936, 400, 400)" opacity="0.60"></path><path d="M274.98 279.95Q284.51 279.09 294.04 277.61 303.57 275.55 313.1 272.95 322.63 269.91 332.16 266.49 341.69 262.81 351.22 258.96 360.75 255.06 370.28 251.21 379.81 247.53 389.34 244.11 398.87 241.06 408.4 238.47 417.93 236.39 427.46 234.91 436.99 234.04 446.52 233.83 456.05 234.28 465.58 235.37 475.11 237.08 484.64 239.35 494.17 242.12 503.7 245.31 513.23 248.83 522.76 252.59 532.29 256.47 541.82 260.37 551.35 264.17 560.88 267.76 573.8 277.13 573.39 292.49 568.67 301.76 563.15 311.03 557.02 320.31 550.46 329.58 543.67 338.85 536.86 348.12 530.23 357.4 524 366.67 518.35 375.94 513.46 385.22 509.47 394.49 506.5 403.76 504.66 413.03 503.99 422.31 504.51 431.58 506.21 440.85 509.04 450.12 512.91 459.4 517.7 468.67 523.27 477.94 529.44 487.21 536.02 496.49 542.82 505.76 549.63 515.03 556.23 524.3 562.42 533.58 568.02 542.85 572.86 552.12 562.27 559.19 541.56 548.5 532.03 542.14 522.51 535.8 512.98 529.67 503.46 523.92 493.93 518.71 484.4 514.18 474.88 510.48 465.35 507.7 455.83 505.91 446.3 505.18 436.78 505.53 427.25 506.93 417.73 509.36 408.2 512.75 398.68 516.99 389.15 521.97 379.62 527.54 370.1 533.56 360.57 539.84 351.05 546.21 341.52 552.49 332 558.5 322.47 564.07 312.95 569.05 303.42 573.28 293.89 576.65 278.9 575.08 271.53 561.69 269.18 552.3 266.45 542.91 263.44 533.51 260.22 524.12 256.91 514.73 253.6 505.34 250.4 495.95 247.39 486.56 244.68 477.17 242.35 467.78 240.47 458.38 239.09 448.99 238.26 439.6 238.01 430.21 238.33 420.82 239.23 411.43 240.67 402.04 242.62 392.65 245 383.25 247.75 373.86 250.78 364.47 254.01 355.08 257.32 345.69 260.63 336.3 263.82 326.91 266.81 317.52 269.49 308.12 271.79 298.73 273.64 289.34 274.98 279.95" stroke-dasharray="0 0" transform="rotate(22.67741935483871, 400, 400)" opacity="0.63"></path><path d="M284.92 290.34Q302.41 286.81 319.9 281.47 337.39 274.84 354.87 267.55 372.36 260.3 389.85 253.8 407.34 248.65 424.83 245.37 442.32 244.26 459.81 245.43 477.3 248.78 494.79 253.97 512.28 260.51 529.77 267.77 547.26 275.05 564.74 281.65 556.77 298.64 546.22 315.62 534.2 332.61 521.95 349.6 510.74 366.58 501.74 383.57 495.87 400.55 493.76 417.54 495.61 434.53 501.24 451.51 510.06 468.5 521.15 485.49 533.37 502.47 545.45 519.46 551.48 539.76 529.36 531.63 511.88 520.24 494.4 509.97 476.93 501.82 459.45 496.57 441.98 494.73 424.5 496.47 407.02 501.63 389.55 509.7 372.07 519.92 354.6 531.3 337.12 542.74 319.64 553.16 302.17 561.54 284.69 567.07 280.47 549.78 274.95 532.48 268.71 515.19 262.39 497.89 256.66 480.59 252.1 463.3 249.19 446 248.24 428.71 249.33 411.41 252.36 394.11 257.01 376.82 262.8 359.52 269.13 342.23 275.35 324.93 280.8 307.63 284.92 290.34" stroke-dasharray="0 0" transform="rotate(23.870967741935484, 400, 400)" opacity="0.66"></path><path d="M293.9 299.69Q309.8 295.27 325.69 289.53 341.58 282.94 357.48 276.03 373.37 269.36 389.26 263.47 405.16 258.83 421.05 255.83 436.94 254.7 452.84 255.54 468.73 258.27 484.63 262.68 500.52 268.41 516.41 275 532.31 281.9 548.2 288.58 539.48 304.01 529.15 319.44 518.11 334.87 507.32 350.3 497.72 365.73 490.15 381.16 485.28 396.59 483.53 412.02 485.04 427.45 489.7 442.89 497.09 458.32 506.56 473.75 517.3 489.18 528.36 504.61 535.27 522.71 515.88 514.95 500 505.01 484.12 496.35 468.25 489.69 452.37 485.56 436.49 484.3 420.61 486.01 404.74 490.54 388.86 497.54 372.98 506.44 357.1 516.51 341.22 526.95 325.35 536.9 309.47 545.57 293.59 552.25 288.74 536.46 283.03 520.68 276.97 504.89 271.09 489.11 265.9 473.32 261.85 457.54 259.3 441.75 258.47 425.97 259.43 410.18 262.1 394.4 266.24 378.61 271.5 362.83 277.41 347.04 283.46 331.26 289.13 315.47 293.9 299.69" stroke-dasharray="0 0" transform="rotate(25.064516129032256, 400, 400)" opacity="0.69"></path><path d="M301.97 308.03Q316.26 303.03 330.55 297.17 344.84 290.82 359.13 284.42 373.42 278.39 387.71 273.14 402 269.01 416.3 266.29 430.59 265.16 444.88 265.69 459.17 267.85 473.46 271.48 487.75 276.36 502.04 282.15 516.33 288.47 530.62 294.88 521.79 308.77 512.11 322.66 502.28 336.55 493 350.44 484.95 364.32 478.71 378.21 474.73 392.1 473.3 405.99 474.52 419.88 478.3 433.77 484.37 447.66 492.3 461.54 501.5 475.43 511.32 489.32 518.36 505.49 501.41 498.59 487.14 490.18 472.87 483.09 458.59 477.8 444.32 474.67 430.05 473.9 415.77 475.55 401.5 479.5 387.22 485.49 372.95 493.13 358.68 501.89 344.4 511.19 330.13 520.42 315.86 528.95 301.58 536.21 296.4 521.94 290.76 507.68 285.06 493.42 279.72 479.16 275.12 464.9 271.6 450.64 269.4 436.38 268.7 422.12 269.53 407.86 271.84 393.59 275.46 379.33 280.13 365.07 285.51 350.81 291.22 336.55 296.84 322.29 301.97 308.03" stroke-dasharray="0 0" transform="rotate(26.258064516129032, 400, 400)" opacity="0.72"></path><path d="M309.21 315.43Q321.9 310.2 334.6 304.47 347.3 298.54 360 292.76 372.69 287.41 385.39 282.81 398.09 279.19 410.78 276.76 423.48 275.64 436.18 275.89 448.88 277.51 461.57 280.41 474.27 284.42 486.97 289.33 499.67 294.87 512.36 300.75 503.96 313.12 495.26 325.49 486.79 337.86 479.02 350.22 472.43 362.59 467.4 374.96 464.21 387.33 463.07 399.7 464.03 412.07 467.03 424.44 471.91 436.81 478.38 449.18 486.06 461.54 494.49 473.91 487.33 482.08 460.92 470.19 448.24 466.14 435.56 463.88 422.88 463.52 410.2 465.08 397.52 468.49 384.84 473.55 372.16 479.99 359.48 487.47 346.8 495.57 334.12 503.85 321.44 511.87 308.76 519.2 303.57 506.46 298.23 493.73 293.05 480.99 288.33 468.26 284.36 455.52 281.36 442.79 279.52 430.05 278.93 417.32 279.63 404.58 281.59 391.85 284.68 379.11 288.73 366.37 293.5 353.64 298.7 340.9 304.04 328.17 309.21 315.43" stroke-dasharray="0 0" transform="rotate(27.451612903225808, 400, 400)" opacity="0.75"></path><path d="M315.76 322.03Q326.89 316.87 338.01 311.51 349.14 306.16 360.27 301.07 371.39 296.45 382.52 292.49 393.65 289.37 404.77 287.22 415.9 286.13 427.03 286.16 438.15 287.29 449.28 289.48 460.41 292.64 471.54 296.63 484.45 309.28 478.76 328.15 471.71 339.03 465.42 349.91 460.17 360.79 456.22 371.66 453.73 382.54 452.84 393.42 453.57 404.3 455.9 415.18 459.71 426.06 464.84 436.94 471.04 447.81 478.02 458.69 471.7 466.75 448.59 457.67 437.48 454.72 426.37 453.19 415.26 453.16 404.15 454.62 393.04 457.52 381.93 461.72 370.82 467.05 359.71 473.28 348.6 480.14 337.49 487.34 318.37 492.43 305.52 479.08 300.98 467.86 296.95 456.64 293.62 445.42 291.14 434.21 289.63 422.99 289.16 411.77 289.74 400.55 291.35 389.34 293.92 378.12 297.33 366.9 301.42 355.68 305.99 344.46 310.85 333.25 315.76 322.03" stroke-dasharray="0 0" transform="rotate(28.64516129032258, 400, 400)" opacity="0.79"></path><path d="M321.81 327.98Q331.4 323.19 340.99 318.39 350.59 313.74 360.18 309.4 369.77 305.5 379.36 302.18 388.95 299.55 398.54 297.68 408.13 296.65 417.72 296.48 427.31 297.19 436.91 298.74 446.5 301.1 456.09 304.17 467.27 314.67 462.73 330.9 457.12 340.32 452.2 349.74 448.17 359.16 445.17 368.58 443.29 378 442.61 387.43 443.15 396.85 444.89 406.27 447.77 415.69 451.69 425.11 456.51 434.53 462.06 443.96 456.17 451.98 436.22 445.54 426.64 443.52 417.07 442.6 407.49 442.82 397.91 444.16 388.34 446.58 378.76 450 369.18 454.3 359.61 459.36 350.03 464.99 340.45 471.02 323.89 475.49 312.74 464.03 308.93 454.31 305.62 444.59 302.93 434.87 300.95 425.16 299.76 415.44 299.39 405.72 299.85 396 301.14 386.29 303.21 376.57 305.98 366.85 309.35 357.13 313.2 347.42 317.41 337.7 321.81 327.98" stroke-dasharray="0 0" transform="rotate(29.838709677419352, 400, 400)" opacity="0.82"></path><path d="M327.59 333.49Q343.79 325.21 359.98 317.77 376.18 311.9 392.38 308.14 408.57 306.88 424.77 308.22 440.97 312.04 457.16 317.97 447.31 333.97 439.39 349.97 434.24 365.97 432.38 381.97 434.01 397.97 438.95 413.97 443.5 434.26 424.12 433.79 407.94 432.11 391.77 433.69 375.6 438.38 359.43 445.72 343.25 455.01 327.08 465.36 320.01 448.88 314.38 432.39 310.8 415.91 309.62 399.42 310.97 382.94 314.7 366.46 320.44 349.97 327.59 333.49" stroke-dasharray="0 0" transform="rotate(31.03225806451613, 400, 400)" opacity="0.85"></path><path d="M333.35 338.79Q346.65 332.07 359.96 326.23 373.26 321.63 386.56 318.61 399.87 317.34 413.17 317.93 426.48 320.33 439.78 324.38 432.58 337.61 426.99 350.84 423.43 364.06 422.15 377.29 423.24 390.51 426.62 403.74 428.96 421.14 412.58 422.42 399.3 421.71 386.01 423.23 372.72 426.88 359.44 432.4 346.15 439.44 332.87 447.52 327.44 433.93 323.27 420.34 320.68 406.75 319.85 393.15 320.83 379.56 323.55 365.97 327.83 352.38 333.35 338.79" stroke-dasharray="0 0" transform="rotate(32.225806451612904, 400, 400)" opacity="0.88"></path><path d="M339.35 344.12Q349.86 339.1 360.36 334.8 370.87 331.4 381.37 329.07 391.88 327.89 402.39 327.92 415.75 335.59 415 352.55 412.73 363.07 411.92 373.58 412.59 384.09 414.71 394.6 415.28 408.99 401.88 411.43 391.39 411.4 380.9 412.77 370.4 415.48 359.91 419.41 342.28 421.93 332.33 408.7 330.62 397.94 330.08 387.18 330.74 376.41 332.57 365.65 335.49 354.89 339.35 344.12" stroke-dasharray="0 0" transform="rotate(33.41935483870968, 400, 400)" opacity="0.91"></path><path d="M345.88 349.76Q361.46 343.52 377.05 339.53 392.63 338.19 408.22 339.61 403.42 355.31 401.69 371 403.2 386.7 407.81 402.4 392.24 400.8 376.67 402.31 361.1 406.76 345.53 413.74 341.6 397.74 340.31 381.75 341.78 365.75 345.88 349.76" stroke-dasharray="0 0" transform="rotate(34.61290322580645, 400, 400)" opacity="0.94"></path><path d="M353.18 355.95Q363.48 352.42 373.78 349.99 388.16 354 391.46 369.67 387.96 385.32 373.52 391.84 357.17 391.07 350.54 377.1 351.24 366.53 353.18 355.95" stroke-dasharray="0 0" transform="rotate(35.806451612903224, 400, 400)" opacity="0.97"></path></g></svg>